<?xml version="1.0" encoding="UTF-8"?><svg xmlns="http://www.w3.org/2000/svg" xmlns:xlink="http://www.w3.org/1999/xlink" fill-opacity="1" color-rendering="auto" color-interpolation="auto" text-rendering="auto" stroke="black" stroke-linecap="square" width="338" stroke-miterlimit="10" shape-rendering="auto" stroke-opacity="1" fill="black" stroke-dasharray="none" font-weight="normal" stroke-width="1" height="1108" font-family="'Dialog'" font-style="normal" stroke-linejoin="miter" font-size="12px" stroke-dashoffset="0" image-rendering="auto">
  <!--Generated by ySVG 2.5-->
  <defs id="genericDefs"/>
  <g>
    <defs id="defs1">
      <clipPath clipPathUnits="userSpaceOnUse" id="clipPath1">
        <path d="M0 0 L338 0 L338 1108 L0 1108 L0 0 Z"/>
      </clipPath>
      <clipPath clipPathUnits="userSpaceOnUse" id="clipPath2">
        <path d="M475 206 L813 206 L813 1314 L475 1314 L475 206 Z"/>
      </clipPath>
    </defs>
    <g fill="white" text-rendering="geometricPrecision" shape-rendering="geometricPrecision" transform="translate(-475,-206)" stroke="white">
      <rect x="475" width="338" height="1108" y="206" clip-path="url(#clipPath2)" stroke="none"/>
    </g>
    <g fill="white" text-rendering="geometricPrecision" shape-rendering="geometricPrecision" transform="matrix(1,0,0,1,-475,-206)" stroke="white">
      <circle r="15" clip-path="url(#clipPath2)" cx="523" cy="355" stroke="none"/>
    </g>
    <g text-rendering="geometricPrecision" stroke-miterlimit="1.45" shape-rendering="geometricPrecision" transform="matrix(1,0,0,1,-475,-206)" stroke-linecap="butt">
      <circle fill="none" r="15" clip-path="url(#clipPath2)" cx="523" cy="355"/>
      <text x="519.324" xml:space="preserve" y="360.8108" clip-path="url(#clipPath2)" font-family="'Inconsolata LGC'" stroke="none">A</text>
      <text x="511.2285" xml:space="preserve" y="331.1699" clip-path="url(#clipPath2)" font-family="sans-serif" stroke="none">W:4</text>
    </g>
    <g fill="white" text-rendering="geometricPrecision" shape-rendering="geometricPrecision" transform="matrix(1,0,0,1,-475,-206)" stroke="white">
      <rect x="483" width="322" height="35" y="214.944" clip-path="url(#clipPath2)" stroke="none"/>
    </g>
    <g text-rendering="geometricPrecision" stroke-miterlimit="1.45" shape-rendering="geometricPrecision" transform="matrix(1,0,0,1,-475,-206)" stroke-linecap="butt">
      <rect fill="none" x="483" width="322" height="35" y="214.944" clip-path="url(#clipPath2)"/>
      <text x="508.2764" xml:space="preserve" y="236.5983" clip-path="url(#clipPath2)" font-family="sans-serif" stroke="none">Message: ABDBAACCCDA – 4xA 2xB 3xC 2xD</text>
    </g>
    <g fill="white" text-rendering="geometricPrecision" shape-rendering="geometricPrecision" transform="matrix(1,0,0,1,-475,-206)" stroke="white">
      <circle r="15" clip-path="url(#clipPath2)" cx="600" cy="355" stroke="none"/>
    </g>
    <g text-rendering="geometricPrecision" stroke-miterlimit="1.45" shape-rendering="geometricPrecision" transform="matrix(1,0,0,1,-475,-206)" stroke-linecap="butt">
      <circle fill="none" r="15" clip-path="url(#clipPath2)" cx="600" cy="355"/>
      <text x="596.324" xml:space="preserve" y="360.8108" clip-path="url(#clipPath2)" font-family="'Inconsolata LGC'" stroke="none">B</text>
      <text x="588.2285" xml:space="preserve" y="331.1699" clip-path="url(#clipPath2)" font-family="sans-serif" stroke="none">W:2</text>
    </g>
    <g fill="white" text-rendering="geometricPrecision" shape-rendering="geometricPrecision" transform="matrix(1,0,0,1,-475,-206)" stroke="white">
      <circle r="15" clip-path="url(#clipPath2)" cx="677" cy="355" stroke="none"/>
    </g>
    <g text-rendering="geometricPrecision" stroke-miterlimit="1.45" shape-rendering="geometricPrecision" transform="matrix(1,0,0,1,-475,-206)" stroke-linecap="butt">
      <circle fill="none" r="15" clip-path="url(#clipPath2)" cx="677" cy="355"/>
      <text x="673.324" xml:space="preserve" y="360.8108" clip-path="url(#clipPath2)" font-family="'Inconsolata LGC'" stroke="none">C</text>
      <text x="665.2285" xml:space="preserve" y="331.1699" clip-path="url(#clipPath2)" font-family="sans-serif" stroke="none">W:3</text>
    </g>
    <g fill="white" text-rendering="geometricPrecision" shape-rendering="geometricPrecision" transform="matrix(1,0,0,1,-475,-206)" stroke="white">
      <circle r="15" clip-path="url(#clipPath2)" cx="754" cy="355" stroke="none"/>
    </g>
    <g text-rendering="geometricPrecision" stroke-miterlimit="1.45" shape-rendering="geometricPrecision" transform="matrix(1,0,0,1,-475,-206)" stroke-linecap="butt">
      <circle fill="none" r="15" clip-path="url(#clipPath2)" cx="754" cy="355"/>
      <text x="750.324" xml:space="preserve" y="360.8108" clip-path="url(#clipPath2)" font-family="'Inconsolata LGC'" stroke="none">D</text>
      <text x="742.2285" xml:space="preserve" y="331.1699" clip-path="url(#clipPath2)" font-family="sans-serif" stroke="none">W:2</text>
    </g>
    <g fill="white" text-rendering="geometricPrecision" shape-rendering="geometricPrecision" transform="matrix(1,0,0,1,-475,-206)" stroke="white">
      <circle r="15" clip-path="url(#clipPath2)" cx="523" cy="526" stroke="none"/>
    </g>
    <g text-rendering="geometricPrecision" stroke-miterlimit="1.45" shape-rendering="geometricPrecision" transform="matrix(1,0,0,1,-475,-206)" stroke-linecap="butt">
      <circle fill="none" r="15" clip-path="url(#clipPath2)" cx="523" cy="526"/>
      <text x="519.324" xml:space="preserve" y="531.8108" clip-path="url(#clipPath2)" font-family="'Inconsolata LGC'" stroke="none">A</text>
      <text x="511.2285" xml:space="preserve" y="502.1699" clip-path="url(#clipPath2)" font-family="sans-serif" stroke="none">W:4</text>
    </g>
    <g fill="white" text-rendering="geometricPrecision" shape-rendering="geometricPrecision" transform="matrix(1,0,0,1,-475,-206)" stroke="white">
      <circle r="15" clip-path="url(#clipPath2)" cx="600" cy="526" stroke="none"/>
    </g>
    <g text-rendering="geometricPrecision" stroke-miterlimit="1.45" shape-rendering="geometricPrecision" transform="matrix(1,0,0,1,-475,-206)" stroke-linecap="butt">
      <circle fill="none" r="15" clip-path="url(#clipPath2)" cx="600" cy="526"/>
      <text x="596.324" xml:space="preserve" y="531.8108" clip-path="url(#clipPath2)" font-family="'Inconsolata LGC'" stroke="none">B</text>
      <text x="588.2285" xml:space="preserve" y="502.1699" clip-path="url(#clipPath2)" font-family="sans-serif" stroke="none">W:2</text>
    </g>
    <g fill="white" text-rendering="geometricPrecision" shape-rendering="geometricPrecision" transform="matrix(1,0,0,1,-475,-206)" stroke="white">
      <circle r="15" clip-path="url(#clipPath2)" cx="677" cy="526" stroke="none"/>
    </g>
    <g text-rendering="geometricPrecision" stroke-miterlimit="1.45" shape-rendering="geometricPrecision" transform="matrix(1,0,0,1,-475,-206)" stroke-linecap="butt">
      <circle fill="none" r="15" clip-path="url(#clipPath2)" cx="677" cy="526"/>
      <text x="673.324" xml:space="preserve" y="531.8108" clip-path="url(#clipPath2)" font-family="'Inconsolata LGC'" stroke="none">C</text>
      <text x="665.2285" xml:space="preserve" y="502.1699" clip-path="url(#clipPath2)" font-family="sans-serif" stroke="none">W:3</text>
    </g>
    <g fill="white" text-rendering="geometricPrecision" shape-rendering="geometricPrecision" transform="matrix(1,0,0,1,-475,-206)" stroke="white">
      <circle r="15" clip-path="url(#clipPath2)" cx="754" cy="526" stroke="none"/>
    </g>
    <g text-rendering="geometricPrecision" stroke-miterlimit="1.45" shape-rendering="geometricPrecision" transform="matrix(1,0,0,1,-475,-206)" stroke-linecap="butt">
      <circle fill="none" r="15" clip-path="url(#clipPath2)" cx="754" cy="526"/>
      <text x="750.324" xml:space="preserve" y="531.8108" clip-path="url(#clipPath2)" font-family="'Inconsolata LGC'" stroke="none">D</text>
      <text x="742.2285" xml:space="preserve" y="502.1699" clip-path="url(#clipPath2)" font-family="sans-serif" stroke="none">W:2</text>
    </g>
    <g fill="white" text-rendering="geometricPrecision" shape-rendering="geometricPrecision" transform="matrix(1,0,0,1,-475,-206)" stroke="white">
      <circle r="15" clip-path="url(#clipPath2)" cx="715.5" cy="458.5064" stroke="none"/>
    </g>
    <g text-rendering="geometricPrecision" stroke-miterlimit="1.45" shape-rendering="geometricPrecision" transform="matrix(1,0,0,1,-475,-206)" stroke-linecap="butt">
      <circle fill="none" r="15" clip-path="url(#clipPath2)" cx="715.5" cy="458.5064"/>
      <text x="711.824" xml:space="preserve" y="464.3172" clip-path="url(#clipPath2)" font-family="'Inconsolata LGC'" stroke="none">.</text>
      <text x="703.7285" xml:space="preserve" y="434.6763" clip-path="url(#clipPath2)" font-family="sans-serif" stroke="none">W:4</text>
    </g>
    <g fill="white" text-rendering="geometricPrecision" shape-rendering="geometricPrecision" transform="matrix(1,0,0,1,-475,-206)" stroke="white">
      <circle r="15" clip-path="url(#clipPath2)" cx="523" cy="689.1056" stroke="none"/>
    </g>
    <g text-rendering="geometricPrecision" stroke-miterlimit="1.45" shape-rendering="geometricPrecision" transform="matrix(1,0,0,1,-475,-206)" stroke-linecap="butt">
      <circle fill="none" r="15" clip-path="url(#clipPath2)" cx="523" cy="689.1056"/>
      <text x="519.324" xml:space="preserve" y="694.9164" clip-path="url(#clipPath2)" font-family="'Inconsolata LGC'" stroke="none">A</text>
      <text x="511.2285" xml:space="preserve" y="665.2755" clip-path="url(#clipPath2)" font-family="sans-serif" stroke="none">W:4</text>
    </g>
    <g fill="white" text-rendering="geometricPrecision" shape-rendering="geometricPrecision" transform="matrix(1,0,0,1,-475,-206)" stroke="white">
      <circle r="15" clip-path="url(#clipPath2)" cx="677" cy="689.1056" stroke="none"/>
    </g>
    <g text-rendering="geometricPrecision" stroke-miterlimit="1.45" shape-rendering="geometricPrecision" transform="matrix(1,0,0,1,-475,-206)" stroke-linecap="butt">
      <circle fill="none" r="15" clip-path="url(#clipPath2)" cx="677" cy="689.1056"/>
      <text x="673.324" xml:space="preserve" y="694.9164" clip-path="url(#clipPath2)" font-family="'Inconsolata LGC'" stroke="none">B</text>
      <text x="665.2285" xml:space="preserve" y="665.2755" clip-path="url(#clipPath2)" font-family="sans-serif" stroke="none">W:2</text>
    </g>
    <g fill="white" text-rendering="geometricPrecision" shape-rendering="geometricPrecision" transform="matrix(1,0,0,1,-475,-206)" stroke="white">
      <circle r="15" clip-path="url(#clipPath2)" cx="600" cy="689.1056" stroke="none"/>
    </g>
    <g text-rendering="geometricPrecision" stroke-miterlimit="1.45" shape-rendering="geometricPrecision" transform="matrix(1,0,0,1,-475,-206)" stroke-linecap="butt">
      <circle fill="none" r="15" clip-path="url(#clipPath2)" cx="600" cy="689.1056"/>
      <text x="596.324" xml:space="preserve" y="694.9164" clip-path="url(#clipPath2)" font-family="'Inconsolata LGC'" stroke="none">C</text>
      <text x="588.2285" xml:space="preserve" y="665.2755" clip-path="url(#clipPath2)" font-family="sans-serif" stroke="none">W:3</text>
    </g>
    <g fill="white" text-rendering="geometricPrecision" shape-rendering="geometricPrecision" transform="matrix(1,0,0,1,-475,-206)" stroke="white">
      <circle r="15" clip-path="url(#clipPath2)" cx="754" cy="689.1056" stroke="none"/>
    </g>
    <g text-rendering="geometricPrecision" stroke-miterlimit="1.45" shape-rendering="geometricPrecision" transform="matrix(1,0,0,1,-475,-206)" stroke-linecap="butt">
      <circle fill="none" r="15" clip-path="url(#clipPath2)" cx="754" cy="689.1056"/>
      <text x="750.324" xml:space="preserve" y="694.9164" clip-path="url(#clipPath2)" font-family="'Inconsolata LGC'" stroke="none">D</text>
      <text x="742.2285" xml:space="preserve" y="665.2755" clip-path="url(#clipPath2)" font-family="sans-serif" stroke="none">W:2</text>
    </g>
    <g fill="white" text-rendering="geometricPrecision" shape-rendering="geometricPrecision" transform="matrix(1,0,0,1,-475,-206)" stroke="white">
      <circle r="15" clip-path="url(#clipPath2)" cx="715.5" cy="621.612" stroke="none"/>
    </g>
    <g text-rendering="geometricPrecision" stroke-miterlimit="1.45" shape-rendering="geometricPrecision" transform="matrix(1,0,0,1,-475,-206)" stroke-linecap="butt">
      <circle fill="none" r="15" clip-path="url(#clipPath2)" cx="715.5" cy="621.612"/>
      <text x="711.824" xml:space="preserve" y="627.4228" clip-path="url(#clipPath2)" font-family="'Inconsolata LGC'" stroke="none">.</text>
      <text x="703.7285" xml:space="preserve" y="597.7819" clip-path="url(#clipPath2)" font-family="sans-serif" stroke="none">W:4</text>
    </g>
    <g fill="white" text-rendering="geometricPrecision" shape-rendering="geometricPrecision" transform="matrix(1,0,0,1,-475,-206)" stroke="white">
      <circle r="15" clip-path="url(#clipPath2)" cx="523" cy="956.097" stroke="none"/>
    </g>
    <g text-rendering="geometricPrecision" stroke-miterlimit="1.45" shape-rendering="geometricPrecision" transform="matrix(1,0,0,1,-475,-206)" stroke-linecap="butt">
      <circle fill="none" r="15" clip-path="url(#clipPath2)" cx="523" cy="956.097"/>
      <text x="519.324" xml:space="preserve" y="961.9078" clip-path="url(#clipPath2)" font-family="'Inconsolata LGC'" stroke="none">A</text>
      <text x="511.2285" xml:space="preserve" y="932.267" clip-path="url(#clipPath2)" font-family="sans-serif" stroke="none">W:4</text>
    </g>
    <g fill="white" text-rendering="geometricPrecision" shape-rendering="geometricPrecision" transform="matrix(1,0,0,1,-475,-206)" stroke="white">
      <circle r="15" clip-path="url(#clipPath2)" cx="677" cy="956.097" stroke="none"/>
    </g>
    <g text-rendering="geometricPrecision" stroke-miterlimit="1.45" shape-rendering="geometricPrecision" transform="matrix(1,0,0,1,-475,-206)" stroke-linecap="butt">
      <circle fill="none" r="15" clip-path="url(#clipPath2)" cx="677" cy="956.097"/>
      <text x="673.324" xml:space="preserve" y="961.9078" clip-path="url(#clipPath2)" font-family="'Inconsolata LGC'" stroke="none">B</text>
      <text x="665.2285" xml:space="preserve" y="932.267" clip-path="url(#clipPath2)" font-family="sans-serif" stroke="none">W:2</text>
    </g>
    <g fill="white" text-rendering="geometricPrecision" shape-rendering="geometricPrecision" transform="matrix(1,0,0,1,-475,-206)" stroke="white">
      <circle r="15" clip-path="url(#clipPath2)" cx="638.5" cy="888.6035" stroke="none"/>
    </g>
    <g text-rendering="geometricPrecision" stroke-miterlimit="1.45" shape-rendering="geometricPrecision" transform="matrix(1,0,0,1,-475,-206)" stroke-linecap="butt">
      <circle fill="none" r="15" clip-path="url(#clipPath2)" cx="638.5" cy="888.6035"/>
      <text x="634.824" xml:space="preserve" y="894.4142" clip-path="url(#clipPath2)" font-family="'Inconsolata LGC'" stroke="none">C</text>
      <text x="626.7285" xml:space="preserve" y="864.7734" clip-path="url(#clipPath2)" font-family="sans-serif" stroke="none">W:3</text>
    </g>
    <g fill="white" text-rendering="geometricPrecision" shape-rendering="geometricPrecision" transform="matrix(1,0,0,1,-475,-206)" stroke="white">
      <circle r="15" clip-path="url(#clipPath2)" cx="754" cy="956.097" stroke="none"/>
    </g>
    <g text-rendering="geometricPrecision" stroke-miterlimit="1.45" shape-rendering="geometricPrecision" transform="matrix(1,0,0,1,-475,-206)" stroke-linecap="butt">
      <circle fill="none" r="15" clip-path="url(#clipPath2)" cx="754" cy="956.097"/>
      <text x="750.324" xml:space="preserve" y="961.9078" clip-path="url(#clipPath2)" font-family="'Inconsolata LGC'" stroke="none">D</text>
      <text x="742.2285" xml:space="preserve" y="932.267" clip-path="url(#clipPath2)" font-family="sans-serif" stroke="none">W:2</text>
    </g>
    <g fill="white" text-rendering="geometricPrecision" shape-rendering="geometricPrecision" transform="matrix(1,0,0,1,-475,-206)" stroke="white">
      <circle r="15" clip-path="url(#clipPath2)" cx="715.5" cy="888.6035" stroke="none"/>
    </g>
    <g text-rendering="geometricPrecision" stroke-miterlimit="1.45" shape-rendering="geometricPrecision" transform="matrix(1,0,0,1,-475,-206)" stroke-linecap="butt">
      <circle fill="none" r="15" clip-path="url(#clipPath2)" cx="715.5" cy="888.6035"/>
      <text x="711.824" xml:space="preserve" y="894.4142" clip-path="url(#clipPath2)" font-family="'Inconsolata LGC'" stroke="none">.</text>
      <text x="703.7285" xml:space="preserve" y="864.7734" clip-path="url(#clipPath2)" font-family="sans-serif" stroke="none">W:4</text>
    </g>
    <g fill="white" text-rendering="geometricPrecision" shape-rendering="geometricPrecision" transform="matrix(1,0,0,1,-475,-206)" stroke="white">
      <circle r="15" clip-path="url(#clipPath2)" cx="677" cy="822.6013" stroke="none"/>
    </g>
    <g text-rendering="geometricPrecision" stroke-miterlimit="1.45" shape-rendering="geometricPrecision" transform="matrix(1,0,0,1,-475,-206)" stroke-linecap="butt">
      <circle fill="none" r="15" clip-path="url(#clipPath2)" cx="677" cy="822.6013"/>
      <text x="673.324" xml:space="preserve" y="828.4121" clip-path="url(#clipPath2)" font-family="'Inconsolata LGC'" stroke="none">.</text>
      <text x="665.2285" xml:space="preserve" y="798.7712" clip-path="url(#clipPath2)" font-family="sans-serif" stroke="none">W:4</text>
    </g>
    <g fill="white" text-rendering="geometricPrecision" shape-rendering="geometricPrecision" transform="matrix(1,0,0,1,-475,-206)" stroke="white">
      <circle r="15" clip-path="url(#clipPath2)" cx="600" cy="1157.0864" stroke="none"/>
    </g>
    <g text-rendering="geometricPrecision" stroke-miterlimit="1.45" shape-rendering="geometricPrecision" transform="matrix(1,0,0,1,-475,-206)" stroke-linecap="butt">
      <circle fill="none" r="15" clip-path="url(#clipPath2)" cx="600" cy="1157.0864"/>
      <text x="596.324" xml:space="preserve" y="1162.8972" clip-path="url(#clipPath2)" font-family="'Inconsolata LGC'" stroke="none">A</text>
      <text x="555.457" xml:space="preserve" y="1161.2406" clip-path="url(#clipPath2)" font-family="sans-serif" stroke="none">W:4</text>
    </g>
    <g fill="white" text-rendering="geometricPrecision" shape-rendering="geometricPrecision" transform="matrix(1,0,0,1,-475,-206)" stroke="white">
      <circle r="15" clip-path="url(#clipPath2)" cx="677" cy="1290.5821" stroke="none"/>
    </g>
    <g text-rendering="geometricPrecision" stroke-miterlimit="1.45" shape-rendering="geometricPrecision" transform="matrix(1,0,0,1,-475,-206)" stroke-linecap="butt">
      <circle fill="none" r="15" clip-path="url(#clipPath2)" cx="677" cy="1290.5821"/>
      <text x="673.324" xml:space="preserve" y="1296.3929" clip-path="url(#clipPath2)" font-family="'Inconsolata LGC'" stroke="none">B</text>
      <text x="632.457" xml:space="preserve" y="1294.7363" clip-path="url(#clipPath2)" font-family="sans-serif" stroke="none">W:2</text>
    </g>
    <g fill="white" text-rendering="geometricPrecision" shape-rendering="geometricPrecision" transform="matrix(1,0,0,1,-475,-206)" stroke="white">
      <circle r="15" clip-path="url(#clipPath2)" cx="638.5" cy="1223.0885" stroke="none"/>
    </g>
    <g text-rendering="geometricPrecision" stroke-miterlimit="1.45" shape-rendering="geometricPrecision" transform="matrix(1,0,0,1,-475,-206)" stroke-linecap="butt">
      <circle fill="none" r="15" clip-path="url(#clipPath2)" cx="638.5" cy="1223.0885"/>
      <text x="634.824" xml:space="preserve" y="1228.8993" clip-path="url(#clipPath2)" font-family="'Inconsolata LGC'" stroke="none">C</text>
      <text x="593.957" xml:space="preserve" y="1227.2428" clip-path="url(#clipPath2)" font-family="sans-serif" stroke="none">W:3</text>
    </g>
    <g fill="white" text-rendering="geometricPrecision" shape-rendering="geometricPrecision" transform="matrix(1,0,0,1,-475,-206)" stroke="white">
      <circle r="15" clip-path="url(#clipPath2)" cx="754" cy="1290.5821" stroke="none"/>
    </g>
    <g text-rendering="geometricPrecision" stroke-miterlimit="1.45" shape-rendering="geometricPrecision" transform="matrix(1,0,0,1,-475,-206)" stroke-linecap="butt">
      <circle fill="none" r="15" clip-path="url(#clipPath2)" cx="754" cy="1290.5821"/>
      <text x="750.324" xml:space="preserve" y="1296.3929" clip-path="url(#clipPath2)" font-family="'Inconsolata LGC'" stroke="none">D</text>
      <text x="709.457" xml:space="preserve" y="1294.7363" clip-path="url(#clipPath2)" font-family="sans-serif" stroke="none">W:2</text>
    </g>
    <g fill="white" text-rendering="geometricPrecision" shape-rendering="geometricPrecision" transform="matrix(1,0,0,1,-475,-206)" stroke="white">
      <circle r="15" clip-path="url(#clipPath2)" cx="715.5" cy="1223.0885" stroke="none"/>
    </g>
    <g text-rendering="geometricPrecision" stroke-miterlimit="1.45" shape-rendering="geometricPrecision" transform="matrix(1,0,0,1,-475,-206)" stroke-linecap="butt">
      <circle fill="none" r="15" clip-path="url(#clipPath2)" cx="715.5" cy="1223.0885"/>
      <text x="711.824" xml:space="preserve" y="1228.8993" clip-path="url(#clipPath2)" font-family="'Inconsolata LGC'" stroke="none">.</text>
      <text x="670.957" xml:space="preserve" y="1227.2428" clip-path="url(#clipPath2)" font-family="sans-serif" stroke="none">W:4</text>
    </g>
    <g fill="white" text-rendering="geometricPrecision" shape-rendering="geometricPrecision" transform="matrix(1,0,0,1,-475,-206)" stroke="white">
      <circle r="15" clip-path="url(#clipPath2)" cx="677" cy="1157.0864" stroke="none"/>
    </g>
    <g text-rendering="geometricPrecision" stroke-miterlimit="1.45" shape-rendering="geometricPrecision" transform="matrix(1,0,0,1,-475,-206)" stroke-linecap="butt">
      <circle fill="none" r="15" clip-path="url(#clipPath2)" cx="677" cy="1157.0864"/>
      <text x="673.324" xml:space="preserve" y="1162.8972" clip-path="url(#clipPath2)" font-family="'Inconsolata LGC'" stroke="none">.</text>
      <text x="632.457" xml:space="preserve" y="1161.2406" clip-path="url(#clipPath2)" font-family="sans-serif" stroke="none">W:7</text>
    </g>
    <g fill="white" text-rendering="geometricPrecision" shape-rendering="geometricPrecision" transform="matrix(1,0,0,1,-475,-206)" stroke="white">
      <circle r="15" clip-path="url(#clipPath2)" cx="638.5" cy="1089.5928" stroke="none"/>
    </g>
    <g text-rendering="geometricPrecision" stroke-miterlimit="1.45" shape-rendering="geometricPrecision" transform="matrix(1,0,0,1,-475,-206)" stroke-linecap="butt">
      <circle fill="none" r="15" clip-path="url(#clipPath2)" cx="638.5" cy="1089.5928"/>
      <text x="634.824" xml:space="preserve" y="1095.4036" clip-path="url(#clipPath2)" font-family="'Inconsolata LGC'" stroke="none">.</text>
      <text x="586.3223" xml:space="preserve" y="1093.7471" clip-path="url(#clipPath2)" font-family="sans-serif" stroke="none">W:11</text>
      <path fill="none" d="M702.5491 466.0744 L612.9509 518.432" clip-path="url(#clipPath2)"/>
      <path fill="none" d="M722.9323 471.5357 L746.5677 512.9707" clip-path="url(#clipPath2)"/>
      <path fill="none" d="M708.0677 634.6412 L684.4323 676.0763" clip-path="url(#clipPath2)"/>
      <path fill="none" d="M722.9323 634.6412 L746.5677 676.0763" clip-path="url(#clipPath2)"/>
      <path fill="none" d="M708.0677 901.6328 L684.4323 943.0677" clip-path="url(#clipPath2)"/>
      <path fill="none" d="M722.9323 901.6328 L746.5677 943.0677" clip-path="url(#clipPath2)"/>
      <path fill="none" d="M707.9421 875.6467 L684.5579 835.5581" clip-path="url(#clipPath2)"/>
      <path fill="none" d="M646.0579 875.6467 L669.4421 835.5581" clip-path="url(#clipPath2)"/>
      <path fill="none" d="M708.0677 1236.1178 L684.4323 1277.5529" clip-path="url(#clipPath2)"/>
      <text x="680.4903" xml:space="preserve" y="1260.9896" clip-path="url(#clipPath2)" font-family="sans-serif" stroke="none">0</text>
      <path fill="none" d="M722.9323 1236.1178 L746.5677 1277.5529" clip-path="url(#clipPath2)"/>
      <text x="743.8749" xml:space="preserve" y="1260.9896" clip-path="url(#clipPath2)" font-family="sans-serif" stroke="none">1</text>
      <path fill="none" d="M707.9421 1210.1317 L684.5579 1170.0431" clip-path="url(#clipPath2)"/>
      <text x="704.4907" xml:space="preserve" y="1194.2417" clip-path="url(#clipPath2)" font-family="sans-serif" stroke="none">1</text>
      <path fill="none" d="M646.0579 1210.1317 L669.4421 1170.0431" clip-path="url(#clipPath2)"/>
      <text x="640.8745" xml:space="preserve" y="1194.2417" clip-path="url(#clipPath2)" font-family="sans-serif" stroke="none">0</text>
      <path fill="none" d="M669.5677 1144.0571 L645.9323 1102.6221" clip-path="url(#clipPath2)"/>
      <text x="665.8749" xml:space="preserve" y="1127.4939" clip-path="url(#clipPath2)" font-family="sans-serif" stroke="none">1</text>
      <path fill="none" d="M607.4323 1144.0571 L631.0677 1102.6221" clip-path="url(#clipPath2)"/>
      <text x="602.4903" xml:space="preserve" y="1127.4939" clip-path="url(#clipPath2)" font-family="sans-serif" stroke="none">0</text>
    </g>
  </g>
</svg>
